<svg width="13" height="12" viewBox="0 0 13 12" fill="none" xmlns="http://www.w3.org/2000/svg">
<path d="M11.916 3.90625C11.916 4.35547 11.5645 4.6875 11.1348 4.6875C11.1152 4.6875 11.1152 4.6875 11.1152 4.6875L10.1191 10.1172C10.0801 10.4102 9.80664 10.625 9.51367 10.625H3.04883C2.75586 10.625 2.48242 10.4102 2.44336 10.1172L1.44727 4.6875C1.44727 4.6875 1.44727 4.6875 1.42773 4.6875C0.998047 4.6875 0.646484 4.35547 0.646484 3.90625C0.646484 3.47656 0.998047 3.125 1.42773 3.125C1.83789 3.125 2.20898 3.47656 2.20898 3.90625C2.20898 4.08203 2.13086 4.23828 2.0332 4.375L3.79102 5.78125C4.10352 6.01562 4.55273 5.91797 4.72852 5.56641L5.86133 3.32031C5.64648 3.18359 5.49023 2.94922 5.49023 2.65625C5.49023 2.22656 5.8418 1.875 6.29102 1.875C6.7207 1.875 7.05273 2.22656 7.05273 2.65625C7.05273 2.94922 6.89648 3.18359 6.66211 3.32031L7.79492 5.56641C7.9707 5.91797 8.43945 6.01562 8.75195 5.78125L10.4902 4.375C10.4121 4.23828 10.3535 4.08203 10.3535 3.90625C10.3535 3.47656 10.6855 3.125 11.1348 3.125C11.5645 3.125 11.916 3.47656 11.916 3.90625Z" fill="#07C271"/>
</svg>
